<?xml version="1.0" encoding="utf-8"?>
<!-- Generator: Adobe Illustrator 27.8.1, SVG Export Plug-In . SVG Version: 6.00 Build 0)  -->
<svg version="1.1" id="Layer_1" xmlns="http://www.w3.org/2000/svg" xmlns:xlink="http://www.w3.org/1999/xlink" x="0px" y="0px"
	 viewBox="0 0 23 23" style="enable-background:new 0 0 23 23;" xml:space="preserve">
<style type="text/css">
	.st0{fill-rule:evenodd;clip-rule:evenodd;fill:#F27121;}
	.st1{fill-rule:evenodd;clip-rule:evenodd;fill:#FFFFFF;}
</style>
<g>
	<path class="st0" d="M1.2,14.4l7.4,7.4c1.6,1.6,4.1,1.6,5.7,0l7.5-7.5c1.5-1.6,1.5-4.1-0.1-5.7l-7.4-7.4c-1.6-1.6-4.1-1.6-5.7-0.1
		L1.2,8.7C-0.4,10.2-0.4,12.8,1.2,14.4L1.2,14.4z"/>
	<path class="st1" d="M7.3,12.1l5.5,5.5c0.8,0.8,0.6,1.8,0,2.4c-0.6,0.6-1.6,0.8-2.4,0L3,12.7C2.3,12,2.3,11,3,10.3l3.7-3.6
		c0.8-0.8,1.8-0.6,2.4,0c0.6,0.6,0.8,1.6,0,2.4l-1.8,1.8C6.9,11.2,6.8,11.7,7.3,12.1L7.3,12.1z"/>
	<path class="st1" d="M15.7,10.9l-5.5-5.5c-0.8-0.8-0.6-1.8,0-2.4c0.6-0.6,1.6-0.8,2.4,0l7.3,7.3c0.7,0.7,0.7,1.7,0,2.4l-3.6,3.7
		c-0.8,0.8-1.8,0.6-2.5,0c-0.6-0.6-0.8-1.6,0-2.4l1.8-1.8C16.1,11.8,16.2,11.3,15.7,10.9L15.7,10.9z"/>
	<path class="st1" d="M10.3,10.3c0.8-0.8,1.8-0.6,2.4,0c0.6,0.6,0.8,1.6,0,2.5c-0.8,0.8-1.8,0.6-2.4,0C9.7,12.1,9.5,11.1,10.3,10.3
		L10.3,10.3z"/>
</g>
</svg>
